<?xml version="1.0" encoding="us-ascii" standalone="no"?><svg xmlns="http://www.w3.org/2000/svg" xmlns:xlink="http://www.w3.org/1999/xlink" contentStyleType="text/css" height="327px" preserveAspectRatio="none" style="width:1143px;height:327px;background:#FFFFFF;" version="1.1" viewBox="0 0 1143 327" width="1143px" zoomAndPan="magnify"><defs/><g><!--cluster Bentochi--><g id="cluster_Bentochi"><rect fill="none" height="314" rx="2.5" ry="2.5" style="stroke:#181818;stroke-width:1.0;" width="844.34" x="106" y="7"/><text fill="#000000" font-family="sans-serif" font-size="14" font-weight="bold" lengthAdjust="spacing" textLength="62" x="497.17" y="22.5352">Bentochi</text></g><g id="elem_UC1"><ellipse cx="204.5182" cy="148.0036" fill="#F1F1F1" rx="82.5182" ry="18.9036" style="stroke:#181818;stroke-width:0.5;"/><text fill="#000000" font-family="sans-serif" font-size="14" lengthAdjust="spacing" textLength="124" x="142.5182" y="151.2947">Adicionar artefato</text></g><g id="elem_UC2"><ellipse cx="490.7048" cy="286.003" fill="#F1F1F1" rx="81.6648" ry="18.733" style="stroke:#181818;stroke-width:0.5;"/><text fill="#000000" font-family="sans-serif" font-size="14" lengthAdjust="spacing" textLength="122" x="429.7048" y="289.294">Adicionar arquivo</text></g><g id="elem_UC3"><ellipse cx="490.7018" cy="215.9964" fill="#F1F1F1" rx="70.5818" ry="16.5164" style="stroke:#181818;stroke-width:0.5;"/><text fill="#000000" font-family="sans-serif" font-size="14" lengthAdjust="spacing" textLength="95" x="441.7184" y="219.6724">Adicionar link</text></g><g id="elem_UC4"><ellipse cx="490.7032" cy="147.0046" fill="#F1F1F1" rx="74.9732" ry="17.3946" style="stroke:#181818;stroke-width:0.5;"/><text fill="#000000" font-family="sans-serif" font-size="14" lengthAdjust="spacing" textLength="106" x="437.7032" y="150.2957">Adicionar texto</text></g><g id="elem_UC5"><ellipse cx="204.5183" cy="218.9997" fill="#F1F1F1" rx="71.7483" ry="16.7497" style="stroke:#181818;stroke-width:0.5;"/><text fill="#000000" font-family="sans-serif" font-size="14" lengthAdjust="spacing" textLength="98" x="154.6333" y="222.5268">Editar artefato</text></g><g id="elem_UC6"><ellipse cx="204.5239" cy="288.0028" fill="#F1F1F1" rx="74.5639" ry="17.3128" style="stroke:#181818;stroke-width:0.5;"/><text fill="#000000" font-family="sans-serif" font-size="14" lengthAdjust="spacing" textLength="105" x="152.0239" y="291.2938">Excluir artefato</text></g><g id="elem_UC7"><ellipse cx="490.702" cy="67.998" fill="#F1F1F1" rx="75.832" ry="26.318" style="stroke:#181818;stroke-width:0.5;"/><text fill="#000000" font-family="sans-serif" font-size="14" lengthAdjust="spacing" textLength="91" x="445.202" y="63.0448">Validar nome</text><text fill="#000000" font-family="sans-serif" font-size="14" lengthAdjust="spacing" textLength="78" x="451.702" y="79.5331">obrigat&#243;rio</text></g><g id="elem_UC8"><ellipse cx="814.3478" cy="197.9996" fill="#F1F1F1" rx="64.4478" ry="15.2896" style="stroke:#181818;stroke-width:0.5;"/><text fill="#000000" font-family="sans-serif" font-size="14" lengthAdjust="spacing" textLength="78" x="772.3478" y="202.0171">Validar URL</text></g><g id="elem_UC9"><ellipse cx="814.3454" cy="274.9971" fill="#F1F1F1" rx="119.9854" ry="26.3971" style="stroke:#181818;stroke-width:0.5;"/><text fill="#000000" font-family="sans-serif" font-size="14" lengthAdjust="spacing" textLength="134" x="747.3454" y="270.044">Referenciar arquivo</text><text fill="#000000" font-family="sans-serif" font-size="14" lengthAdjust="spacing" textLength="154" x="737.3454" y="286.5322">sem modificar original</text></g><!--entity User--><g id="elem_User"><ellipse cx="32.5" cy="189.26" fill="#F1F1F1" rx="8" ry="8" style="stroke:#181818;stroke-width:0.5;"/><path d="M32.5,197.26 L32.5,224.26 M19.5,205.26 L45.5,205.26 M32.5,224.26 L19.5,239.26 M32.5,224.26 L45.5,239.26 " fill="none" style="stroke:#181818;stroke-width:0.5;"/><text fill="#000000" font-family="sans-serif" font-size="14" lengthAdjust="spacing" textLength="53" x="6" y="254.2952">Usu&#225;rio</text></g><!--entity FileSystem--><g id="elem_FileSystem"><ellipse cx="1066.84" cy="237.01" fill="#F1F1F1" rx="8" ry="8" style="stroke:#181818;stroke-width:0.5;"/><path d="M1066.84,245.01 L1066.84,272.01 M1053.84,253.01 L1079.84,253.01 M1066.84,272.01 L1053.84,287.01 M1066.84,272.01 L1079.84,287.01 " fill="none" style="stroke:#181818;stroke-width:0.5;"/><text fill="#000000" font-family="sans-serif" font-size="14" lengthAdjust="spacing" textLength="139" x="997.34" y="302.0452">Sistema de Arquivos</text><text fill="#000000" font-family="sans-serif" font-size="14" lengthAdjust="spacing" textLength="47" x="997.34" y="318.5334">macOS</text></g><!--link User to UC1--><g id="link_User_UC1"><path d="M59.43,204.21 C71.03,197.88 85,190.67 98,185 C116.15,177.09 130.9097,171.5323 148.9297,165.4023 " fill="none" id="User-to-UC1" style="stroke:#181818;stroke-width:1.0;"/><polygon fill="#181818" points="154.61,163.47,144.8013,162.5816,149.8764,165.0803,147.3777,170.1554,154.61,163.47" style="stroke:#181818;stroke-width:1.0;"/></g><!--link User to UC5--><g id="link_User_UC5"><path d="M59.32,219 C78.83,219 100.59,219 126.56,219 " fill="none" id="User-to-UC5" style="stroke:#181818;stroke-width:1.0;"/><polygon fill="#181818" points="132.56,219,123.56,215,127.56,219,123.56,223,132.56,219" style="stroke:#181818;stroke-width:1.0;"/></g><!--link User to UC6--><g id="link_User_UC6"><path d="M59.38,233.9 C70.98,240.24 84.96,247.44 98,253 C116.82,261.02 132.4319,266.5824 150.9619,272.4724 " fill="none" id="User-to-UC6" style="stroke:#181818;stroke-width:1.0;"/><polygon fill="#181818" points="156.68,274.29,149.3146,267.7516,151.9149,272.7754,146.8912,275.3757,156.68,274.29" style="stroke:#181818;stroke-width:1.0;"/></g><!--reverse link UC1 to UC2--><g id="link_UC1_UC2"><path d="M260.7346,172.3966 C274.3346,178.5166 273.23,178.2 287.04,185 C342.15,212.15 353.84,223.02 409.04,250 C422.54,256.6 437.52,263.42 450.88,269.33 " fill="none" id="UC1-backto-UC2" style="stroke:#181818;stroke-width:1.0;"/><polygon fill="none" points="244.32,165.01,258.2724,177.8681,263.1968,166.925,244.32,165.01" style="stroke:#181818;stroke-width:1.0;"/></g><!--reverse link UC1 to UC3--><g id="link_UC1_UC3"><path d="M280.5356,165.9498 C332.5956,178.4098 390.97,192.38 440.34,204.19 " fill="none" id="UC1-backto-UC3" style="stroke:#181818;stroke-width:1.0;"/><polygon fill="none" points="263.03,161.76,279.139,171.785,281.9322,160.1146,263.03,161.76" style="stroke:#181818;stroke-width:1.0;"/></g><!--reverse link UC1 to UC4--><g id="link_UC1_UC4"><path d="M305.3299,147.6475 C345.6699,147.5075 375.96,147.4 415.25,147.26 " fill="none" id="UC1-backto-UC4" style="stroke:#181818;stroke-width:1.0;"/><polygon fill="none" points="287.33,147.71,305.3507,153.6475,305.3091,141.6476,287.33,147.71" style="stroke:#181818;stroke-width:1.0;"/></g><!--link UC1 to UC7--><g id="link_UC1_UC7"><path d="M257.97,133.23 C306.97,119.44 374.2246,100.5061 425.1546,86.1661 " fill="none" id="UC1-to-UC7" style="stroke:#181818;stroke-width:1.0;stroke-dasharray:7.0,7.0;"/><polygon fill="#181818" points="430.93,84.54,421.1827,83.1289,426.1171,85.8951,423.3509,90.8295,430.93,84.54" style="stroke:#181818;stroke-width:1.0;"/><text fill="#000000" font-family="sans-serif" font-size="13" lengthAdjust="spacing" textLength="60" x="318.04" y="97.3984">&#171;include&#187;</text></g><!--link UC3 to UC8--><g id="link_UC3_UC8"><path d="M559.91,212.18 C616.53,209.01 690.3794,204.8852 745.2394,201.8152 " fill="none" id="UC3-to-UC8" style="stroke:#181818;stroke-width:1.0;stroke-dasharray:7.0,7.0;"/><polygon fill="#181818" points="751.23,201.48,742.0206,197.9891,746.2378,201.7594,742.4676,205.9766,751.23,201.48" style="stroke:#181818;stroke-width:1.0;"/><text fill="#000000" font-family="sans-serif" font-size="13" lengthAdjust="spacing" textLength="60" x="603.37" y="203.0284">&#171;include&#187;</text></g><!--link UC2 to UC9--><g id="link_UC2_UC9"><path d="M571.62,283.27 C609.02,281.99 648.3135,280.6451 689.5335,279.2351 " fill="none" id="UC2-to-UC9" style="stroke:#181818;stroke-width:1.0;stroke-dasharray:7.0,7.0;"/><polygon fill="#181818" points="695.53,279.03,686.3985,275.34,690.5329,279.2009,686.672,283.3353,695.53,279.03" style="stroke:#181818;stroke-width:1.0;"/><text fill="#000000" font-family="sans-serif" font-size="13" lengthAdjust="spacing" textLength="60" x="603.37" y="276.7384">&#171;include&#187;</text></g><!--link UC9 to FileSystem--><g id="link_UC9_FileSystem"><path d="M934.73,275 C956.15,275 971.8,275 991.16,275 " fill="none" id="UC9-to-FileSystem" style="stroke:#181818;stroke-width:1.0;"/><polygon fill="#181818" points="997.16,275,988.16,271,992.16,275,988.16,279,997.16,275" style="stroke:#181818;stroke-width:1.0;"/></g><!--SRC=[TP9DJiCm48NtFiKe-rJgVukYIgM25H9IgxBgnjYJTeHZ2zj1HS1XE0D7wCLmWYc6bkNC-yPl_6o5fGTlmD9svq6IHU79QCQuyCP2jdRruTsIoO0xM3kqtyAAdCUAWqIOsyUQdepRw8gBsrMBNfF2rNE3CDQSoVLM8MINgBqHEyhWXG7K3WLteJsN988hjy2jnvBxwBVe_aUrZX7gdOSKwOT8zCyJ7lT7fq6AN4dofyiCVo5xeMewOKOfSySLoN2EDXLkjBaF8ND_-3Z6kHYVezVBcoXFKdc99LhKWdxklz4EAwYCf994Q9jWG9ghE3vbRumrRmPvFcl3J8fXMem2j-X2yPhdRPv9qK-BmHVNwJH3OxY0eY0TSf0ucmMb7vN9YTABolIFmffMiqFoNpu1]--></g></svg>