<?xml version="1.0" encoding="us-ascii" standalone="no"?><svg xmlns="http://www.w3.org/2000/svg" xmlns:xlink="http://www.w3.org/1999/xlink" contentStyleType="text/css" height="698px" preserveAspectRatio="none" style="width:958px;height:698px;background:#FFFFFF;" version="1.1" viewBox="0 0 958 698" width="958px" zoomAndPan="magnify"><defs/><g><!--cluster Bentochi--><g id="cluster_Bentochi"><rect fill="none" height="483" rx="2.5" ry="2.5" style="stroke:#181818;stroke-width:1.0;" width="556.74" x="106" y="7"/><text fill="#000000" font-family="sans-serif" font-size="14" font-weight="bold" lengthAdjust="spacing" textLength="62" x="353.37" y="22.5352">Bentochi</text></g><g id="elem_UC1"><ellipse cx="221.9801" cy="68.0036" fill="#F1F1F1" rx="99.9801" ry="26.3436" style="stroke:#181818;stroke-width:0.5;"/><text fill="#000000" font-family="sans-serif" font-size="14" lengthAdjust="spacing" textLength="125" x="156.4801" y="63.777">Gerenciar espa&#231;os</text><text fill="#000000" font-family="sans-serif" font-size="14" lengthAdjust="spacing" textLength="106" x="165.9801" y="80.2653">de organiza&#231;&#227;o</text></g><g id="elem_UC2"><ellipse cx="221.9812" cy="148.9962" fill="#F1F1F1" rx="85.5312" ry="19.5062" style="stroke:#181818;stroke-width:0.5;"/><text fill="#000000" font-family="sans-serif" font-size="14" lengthAdjust="spacing" textLength="131" x="156.4812" y="152.2873">Gerenciar artefatos</text></g><g id="elem_UC3"><ellipse cx="221.9779" cy="229.9993" fill="#F1F1F1" rx="92.8079" ry="26.3193" style="stroke:#181818;stroke-width:0.5;"/><text fill="#000000" font-family="sans-serif" font-size="14" lengthAdjust="spacing" textLength="115" x="163.7859" y="225.2259">Organizar layout</text><text fill="#000000" font-family="sans-serif" font-size="14" lengthAdjust="spacing" textLength="90" x="176.2859" y="241.7142">dos artefatos</text></g><g id="elem_UC4"><ellipse cx="221.9794" cy="309.9979" fill="#F1F1F1" rx="81.2394" ry="18.6479" style="stroke:#181818;stroke-width:0.5;"/><text fill="#000000" font-family="sans-serif" font-size="14" lengthAdjust="spacing" textLength="121" x="161.4794" y="313.2889">Buscar conte&#250;dos</text></g><g id="elem_UC5"><ellipse cx="221.9765" cy="380.9973" fill="#F1F1F1" rx="77.0365" ry="17.8073" style="stroke:#181818;stroke-width:0.5;"/><text fill="#000000" font-family="sans-serif" font-size="14" lengthAdjust="spacing" textLength="111" x="166.4765" y="384.2883">Abrir conte&#250;dos</text></g><g id="elem_UC6"><ellipse cx="221.9834" cy="453.9987" fill="#F1F1F1" rx="88.1434" ry="20.0287" style="stroke:#181818;stroke-width:0.5;"/><text fill="#000000" font-family="sans-serif" font-size="14" lengthAdjust="spacing" textLength="137" x="153.4834" y="457.2897">Personalizar espa&#231;o</text></g><g id="elem_UC7"><ellipse cx="555.3489" cy="380.9981" fill="#F1F1F1" rx="91.3889" ry="26.3181" style="stroke:#181818;stroke-width:0.5;"/><text fill="#000000" font-family="sans-serif" font-size="14" lengthAdjust="spacing" textLength="113" x="498.6376" y="376.1007">Detectar arquivo</text><text fill="#000000" font-family="sans-serif" font-size="14" lengthAdjust="spacing" textLength="83" x="513.6376" y="392.589">indispon&#237;vel</text></g><!--entity User--><g id="elem_User"><ellipse cx="32.5" cy="250.25" fill="#F1F1F1" rx="8" ry="8" style="stroke:#181818;stroke-width:0.5;"/><path d="M32.5,258.25 L32.5,285.25 M19.5,266.25 L45.5,266.25 M32.5,285.25 L19.5,300.25 M32.5,285.25 L45.5,300.25 " fill="none" style="stroke:#181818;stroke-width:0.5;"/><text fill="#000000" font-family="sans-serif" font-size="14" lengthAdjust="spacing" textLength="53" x="6" y="315.2852">Usu&#225;rio</text></g><!--entity FileSystem--><g id="elem_FileSystem"><ellipse cx="882.24" cy="343.01" fill="#F1F1F1" rx="8" ry="8" style="stroke:#181818;stroke-width:0.5;"/><path d="M882.24,351.01 L882.24,378.01 M869.24,359.01 L895.24,359.01 M882.24,378.01 L869.24,393.01 M882.24,378.01 L895.24,393.01 " fill="none" style="stroke:#181818;stroke-width:0.5;"/><text fill="#000000" font-family="sans-serif" font-size="14" lengthAdjust="spacing" textLength="139" x="812.74" y="408.0452">Sistema de Arquivos</text><text fill="#000000" font-family="sans-serif" font-size="14" lengthAdjust="spacing" textLength="47" x="812.74" y="424.5334">macOS</text></g><!--entity ExternalApps--><g id="elem_ExternalApps"><ellipse cx="555.35" cy="514.25" fill="#F1F1F1" rx="8" ry="8" style="stroke:#181818;stroke-width:0.5;"/><path d="M555.35,522.25 L555.35,549.25 M542.35,530.25 L568.35,530.25 M555.35,549.25 L542.35,564.25 M555.35,549.25 L568.35,564.25 " fill="none" style="stroke:#181818;stroke-width:0.5;"/><text fill="#000000" font-family="sans-serif" font-size="14" lengthAdjust="spacing" textLength="139" x="485.85" y="579.2852">Aplicativos Externos</text></g><!--entity Browser--><g id="elem_Browser"><ellipse cx="555.35" cy="625.25" fill="#F1F1F1" rx="8" ry="8" style="stroke:#181818;stroke-width:0.5;"/><path d="M555.35,633.25 L555.35,660.25 M542.35,641.25 L568.35,641.25 M555.35,660.25 L542.35,675.25 M555.35,660.25 L568.35,675.25 " fill="none" style="stroke:#181818;stroke-width:0.5;"/><text fill="#000000" font-family="sans-serif" font-size="14" lengthAdjust="spacing" textLength="74" x="518.35" y="690.2852">Navegador</text></g><!--link User to UC1--><g id="link_User_UC1"><path d="M38.83,241.58 C45.99,203.82 62.25,146.93 98,112 C110.49,99.79 121.0001,93.1301 137.4101,86.7301 " fill="none" id="User-to-UC1" style="stroke:#181818;stroke-width:1.0;"/><polygon fill="#181818" points="143,84.55,133.1617,84.0935,138.3417,86.3668,136.0685,91.5468,143,84.55" style="stroke:#181818;stroke-width:1.0;"/></g><!--link User to UC2--><g id="link_User_UC2"><path d="M51.99,241.4 C62.94,222.25 78.5,200.24 98,186 C114.02,174.29 128.008,167.9232 146.948,162.4232 " fill="none" id="User-to-UC2" style="stroke:#181818;stroke-width:1.0;"/><polygon fill="#181818" points="152.71,160.75,142.9516,159.4185,147.9084,162.1444,145.1825,167.1011,152.71,160.75" style="stroke:#181818;stroke-width:1.0;"/></g><!--link User to UC3--><g id="link_User_UC3"><path d="M59.39,271.76 C68.7,268.88 79.29,265.69 89,263 C108.8,257.49 124.5586,253.3731 144.4286,248.4131 " fill="none" id="User-to-UC3" style="stroke:#181818;stroke-width:1.0;"/><polygon fill="#181818" points="150.25,246.96,140.5492,245.2588,145.3989,248.171,142.4867,253.0206,150.25,246.96" style="stroke:#181818;stroke-width:1.0;"/></g><!--link User to UC4--><g id="link_User_UC4"><path d="M59.18,284.1 C83.64,288.02 115.6155,293.1312 148.5855,298.4112 " fill="none" id="User-to-UC4" style="stroke:#181818;stroke-width:1.0;"/><polygon fill="#181818" points="154.51,299.36,146.2558,293.9872,149.5729,298.5693,144.9907,301.8865,154.51,299.36" style="stroke:#181818;stroke-width:1.0;"/></g><!--link User to UC5--><g id="link_User_UC5"><path d="M59.26,312.81 C70.1,324.74 83.55,337.39 98,346 C116.69,357.13 133.2817,363.3556 153.8217,368.6756 " fill="none" id="User-to-UC5" style="stroke:#181818;stroke-width:1.0;"/><polygon fill="#181818" points="159.63,370.18,151.9204,364.0512,154.7897,368.9263,149.9146,371.7956,159.63,370.18" style="stroke:#181818;stroke-width:1.0;"/></g><!--link User to UC6--><g id="link_User_UC6"><path d="M42.64,318.67 C51.78,349.18 68.77,390.67 98,416 C112.36,428.43 125.0094,435.0224 143.1594,440.6524 " fill="none" id="User-to-UC6" style="stroke:#181818;stroke-width:1.0;"/><polygon fill="#181818" points="148.89,442.43,141.4791,435.9432,144.1145,440.9487,139.109,443.584,148.89,442.43" style="stroke:#181818;stroke-width:1.0;"/></g><!--link UC5 to ExternalApps--><g id="link_UC5_ExternalApps"><path d="M268.93,395.49 C285.84,401.28 305,408.39 321.96,416 C354.06,430.39 425.3757,470.2116 481.8857,502.3816 " fill="none" id="UC5-to-ExternalApps" style="stroke:#181818;stroke-width:1.0;"/><polygon fill="#181818" points="487.1,505.35,481.2575,497.4212,482.7548,502.8763,477.2997,504.3736,487.1,505.35" style="stroke:#181818;stroke-width:1.0;"/><text fill="#000000" font-family="sans-serif" font-size="13" lengthAdjust="spacing" textLength="80" x="352.96" y="429.5184">abrir arquivo</text></g><!--link UC5 to Browser--><g id="link_UC5_Browser"><path d="M282.04,392.43 C296.56,397.61 311.05,405.12 321.96,416 C350.04,443.98 329.82,467.11 351.96,500 C389.22,555.35 410.35,560.26 463.96,600 C481.08,612.68 496.0544,622.1417 512.9944,632.0017 " fill="none" id="UC5-to-Browser" style="stroke:#181818;stroke-width:1.0;"/><polygon fill="#181818" points="518.18,635.02,512.4138,627.0355,513.8587,632.5048,508.3895,633.9496,518.18,635.02" style="stroke:#181818;stroke-width:1.0;"/><text fill="#000000" font-family="sans-serif" font-size="13" lengthAdjust="spacing" textLength="57" x="364.46" y="496.5684">abrir link</text></g><!--link UC7 to FileSystem--><g id="link_UC7_FileSystem"><path d="M646.85,381 C699.23,381 758.13,381 806.34,381 " fill="none" id="UC7-to-FileSystem" style="stroke:#181818;stroke-width:1.0;"/><polygon fill="#181818" points="812.34,381,803.34,377,807.34,381,803.34,385,812.34,381" style="stroke:#181818;stroke-width:1.0;"/><text fill="#000000" font-family="sans-serif" font-size="13" lengthAdjust="spacing" textLength="102" x="679.74" y="377.5684">verificar arquivo</text></g><!--link UC5 to UC7--><g id="link_UC5_UC7"><path d="M299.42,381 C348.35,381 406.08,381 457.58,381 " fill="none" id="UC5-to-UC7" style="stroke:#181818;stroke-width:1.0;stroke-dasharray:7.0,7.0;"/><polygon fill="#181818" points="463.58,381,454.58,377,458.58,381,454.58,385,463.58,381" style="stroke:#181818;stroke-width:1.0;"/><text fill="#000000" font-family="sans-serif" font-size="13" lengthAdjust="spacing" textLength="60" x="362.96" y="377.5684">&#171;include&#187;</text></g><!--SRC=[RPB9JWCn38RlynHMxqK2kaYegjIMvKQHgjwuc8pRMeHaS39b4m-3E73Y1RZEYv64QOaGnp_-lFnsDAqyU0l2wus7aeMKPskA0fMt0fsbgvitOTi1TB1q9Bl0WfsdEuIIO2BtDM-jkpPtgEQBX9wpfiLJH7O9aqgpGXz1E7lq9CQwXFu8r9EgSZlu4hUqnj9A8gPY7sBh8aw7Pgq9EbCotgeDT-2b0AWTANJX-OA4Z68K85TXyn6d2YDQMQFXv_3GlBTUPeV_vw5uMg5lXrlEZd9itjOHqFXaQn-A1pj_Kuxpb6djLE2LDPwQht8FzN9eSYFy3zFFcIiIPyEUKllMNSiDSkwKV5nJT9BkSctObEmgQvhFBUasPLYy5aKyA7IxuxIDJ1pbuZWNlLpqSp48vMRz9FABmWbWCjTEiuVQe-xZcirj20vJyFVxXFYMX5UiVXtzT3euY6s70HYDs2XTbpGU5zy0]--></g></svg>