<?xml version="1.0" encoding="us-ascii" standalone="no"?><svg xmlns="http://www.w3.org/2000/svg" xmlns:xlink="http://www.w3.org/1999/xlink" contentStyleType="text/css" height="380px" preserveAspectRatio="none" style="width:667px;height:380px;background:#FFFFFF;" version="1.1" viewBox="0 0 667 380" width="667px" zoomAndPan="magnify"><defs/><g><!--cluster Bentochi--><g id="cluster_Bentochi"><rect fill="none" height="367" rx="2.5" ry="2.5" style="stroke:#181818;stroke-width:1.0;" width="555.94" x="106" y="7"/><text fill="#000000" font-family="sans-serif" font-size="14" font-weight="bold" lengthAdjust="spacing" textLength="62" x="352.97" y="22.5352">Bentochi</text></g><g id="elem_UC1"><ellipse cx="220.8194" cy="172.9979" fill="#F1F1F1" rx="81.2394" ry="18.6479" style="stroke:#181818;stroke-width:0.5;"/><text fill="#000000" font-family="sans-serif" font-size="14" lengthAdjust="spacing" textLength="121" x="160.3194" y="176.2889">Buscar conte&#250;dos</text></g><g id="elem_UC2"><ellipse cx="543.7889" cy="67.9981" fill="#F1F1F1" rx="91.3889" ry="26.3181" style="stroke:#181818;stroke-width:0.5;"/><text fill="#000000" font-family="sans-serif" font-size="14" lengthAdjust="spacing" textLength="113" x="487.0776" y="63.1007">Buscar em todos</text><text fill="#000000" font-family="sans-serif" font-size="14" lengthAdjust="spacing" textLength="87" x="500.0776" y="79.589">os bentochis</text></g><g id="elem_UC3"><ellipse cx="543.7893" cy="244.0004" fill="#F1F1F1" rx="93.5193" ry="26.3204" style="stroke:#181818;stroke-width:0.5;"/><text fill="#000000" font-family="sans-serif" font-size="14" lengthAdjust="spacing" textLength="116" x="484.8538" y="239.2884">Buscar dentro de</text><text fill="#000000" font-family="sans-serif" font-size="14" lengthAdjust="spacing" textLength="86" x="499.8538" y="255.7766">um bentochi</text></g><g id="elem_UC4"><ellipse cx="220.8196" cy="249.0039" fill="#F1F1F1" rx="98.8196" ry="22.1639" style="stroke:#181818;stroke-width:0.5;"/><text fill="#000000" font-family="sans-serif" font-size="14" lengthAdjust="spacing" textLength="161" x="140.3196" y="252.2949">Indexar palavras-chave</text></g><g id="elem_UC5"><ellipse cx="543.7881" cy="332.004" fill="#F1F1F1" rx="102.1481" ry="26.354" style="stroke:#181818;stroke-width:0.5;"/><text fill="#000000" font-family="sans-serif" font-size="14" lengthAdjust="spacing" textLength="128" x="476.7881" y="327.7775">Normalizar termos</text><text fill="#000000" font-family="sans-serif" font-size="14" lengthAdjust="spacing" textLength="61" x="510.2881" y="344.2658">de busca</text></g><g id="elem_UC6"><ellipse cx="543.7893" cy="156.0004" fill="#F1F1F1" rx="93.5193" ry="26.3204" style="stroke:#181818;stroke-width:0.5;"/><text fill="#000000" font-family="sans-serif" font-size="14" lengthAdjust="spacing" textLength="116" x="484.8538" y="151.2884">Exibir resultados</text><text fill="#000000" font-family="sans-serif" font-size="14" lengthAdjust="spacing" textLength="55" x="515.3538" y="167.7766">por tipo</text></g><g id="elem_UC7"><ellipse cx="220.8207" cy="331.998" fill="#F1F1F1" rx="73.7107" ry="26.318" style="stroke:#181818;stroke-width:0.5;"/><text fill="#000000" font-family="sans-serif" font-size="14" lengthAdjust="spacing" textLength="88" x="176.8207" y="327.0448">Abrir origem</text><text fill="#000000" font-family="sans-serif" font-size="14" lengthAdjust="spacing" textLength="87" x="177.3207" y="343.5331">do resultado</text></g><!--entity User--><g id="elem_User"><ellipse cx="32.5" cy="223.26" fill="#F1F1F1" rx="8" ry="8" style="stroke:#181818;stroke-width:0.5;"/><path d="M32.5,231.26 L32.5,258.26 M19.5,239.26 L45.5,239.26 M32.5,258.26 L19.5,273.26 M32.5,258.26 L45.5,273.26 " fill="none" style="stroke:#181818;stroke-width:0.5;"/><text fill="#000000" font-family="sans-serif" font-size="14" lengthAdjust="spacing" textLength="53" x="6" y="288.2952">Usu&#225;rio</text></g><!--link User to UC1--><g id="link_User_UC1"><path d="M59.36,232.63 C70.73,224.41 84.53,215.39 98,209 C118.02,199.5 135.317,193.5091 155.967,187.7991 " fill="none" id="User-to-UC1" style="stroke:#181818;stroke-width:1.0;"/><polygon fill="#181818" points="161.75,186.2,152.0095,184.7433,156.9308,187.5326,154.1416,192.4539,161.75,186.2" style="stroke:#181818;stroke-width:1.0;"/></g><!--link User to UC7--><g id="link_User_UC7"><path d="M59.34,268.75 C70.93,275.46 84.91,283.09 98,289 C119.26,298.6 137.6696,305.568 158.7796,312.748 " fill="none" id="User-to-UC7" style="stroke:#181818;stroke-width:1.0;"/><polygon fill="#181818" points="164.46,314.68,157.2274,307.995,159.7263,313.07,154.6513,315.5689,164.46,314.68" style="stroke:#181818;stroke-width:1.0;"/></g><!--reverse link UC1 to UC2--><g id="link_UC1_UC2"><path d="M285.9384,152.0252 C342.4484,133.5452 420.26,108.08 482.21,87.82 " fill="none" id="UC1-backto-UC2" style="stroke:#181818;stroke-width:1.0;"/><polygon fill="none" points="268.83,157.62,287.8034,157.728,284.0735,146.3224,268.83,157.62" style="stroke:#181818;stroke-width:1.0;"/></g><!--reverse link UC1 to UC3--><g id="link_UC1_UC3"><path d="M298.2652,189.9076 C351.3852,201.6576 412.15,215.1 469.35,227.75 " fill="none" id="UC1-backto-UC3" style="stroke:#181818;stroke-width:1.0;"/><polygon fill="none" points="280.69,186.02,296.9693,195.766,299.561,184.0492,280.69,186.02" style="stroke:#181818;stroke-width:1.0;"/></g><!--link UC1 to UC5--><g id="link_UC1_UC5"><path d="M274.15,187.39 C289.49,192.87 305.84,200.01 319.64,209 C335.71,219.46 334.28,228.53 349.64,240 C386.59,267.59 400.02,268.12 441.64,288 C456.85,295.26 468.0472,300.3384 483.4172,307.0184 " fill="none" id="UC1-to-UC5" style="stroke:#181818;stroke-width:1.0;stroke-dasharray:7.0,7.0;"/><polygon fill="#181818" points="488.92,309.41,482.2602,302.1541,484.3344,307.417,479.0715,309.4912,488.92,309.41" style="stroke:#181818;stroke-width:1.0;"/><text fill="#000000" font-family="sans-serif" font-size="13" lengthAdjust="spacing" textLength="60" x="350.64" y="236.5684">&#171;include&#187;</text></g><!--link UC1 to UC6--><g id="link_UC1_UC6"><path d="M300.34,168.84 C345.99,166.42 397.7584,163.6767 445.4384,161.1567 " fill="none" id="UC1-to-UC6" style="stroke:#181818;stroke-width:1.0;stroke-dasharray:7.0,7.0;"/><polygon fill="#181818" points="451.43,160.84,442.2314,157.3206,446.437,161.1039,442.6537,165.3094,451.43,160.84" style="stroke:#181818;stroke-width:1.0;"/><text fill="#000000" font-family="sans-serif" font-size="13" lengthAdjust="spacing" textLength="60" x="350.64" y="159.5484">&#171;include&#187;</text></g><!--link UC4 to UC5--><g id="link_UC4_UC5"><path d="M270.84,268.53 C286.44,274.75 303.76,281.66 319.64,288 C332.98,293.33 335.81,296.14 349.64,300 C382.05,309.05 412.3503,314.9741 444.5903,319.9541 " fill="none" id="UC4-to-UC5" style="stroke:#181818;stroke-width:1.0;stroke-dasharray:7.0,7.0;"/><polygon fill="#181818" points="450.52,320.87,442.2361,315.543,445.5786,320.1067,441.0149,323.4492,450.52,320.87" style="stroke:#181818;stroke-width:1.0;"/><text fill="#000000" font-family="sans-serif" font-size="13" lengthAdjust="spacing" textLength="60" x="350.64" y="296.5684">&#171;include&#187;</text></g><!--SRC=[TP0xQWCn48PxdMBOVWsENn2MXMH9aIQTEpTQQM8BjD8oaep9up2vHbfVBD9QIGHnAZ6QxviPVetF7hm5Klk31wa8XLVMCCQ5jmJLreNp1obR0NUmTKYC9OIRlKQexj5uAmwgWbS641mAxj9tS88J26iydZ-bTHUxcr-1S8Zh8x8pra6VvtqBDrS46HcoyTcPCFmOMLYKmgEHU8h6o3K_4dUrEF0ZPd9Paa-M1gxLIuGzqf2kaGXzMfZnLOa_d5Il20XTq9vFnuynBA_6d5EtBl6xdY9jOyGunC7sLypqXhqpbiA5kcwdd8fY4rlT79gtkfuIAOh5fJMR9Mu5jz0qoWWT9BPjqLd_wIp_SRu0]--></g></svg>