<?xml version="1.0" encoding="us-ascii" standalone="no"?><svg xmlns="http://www.w3.org/2000/svg" xmlns:xlink="http://www.w3.org/1999/xlink" contentStyleType="text/css" height="519px" preserveAspectRatio="none" style="width:1371px;height:519px;background:#FFFFFF;" version="1.1" viewBox="0 0 1371 519" width="1371px" zoomAndPan="magnify"><defs/><g><!--cluster Bentochi--><g id="cluster_Bentochi"><rect fill="none" height="213" rx="2.5" ry="2.5" style="stroke:#181818;stroke-width:1.0;" width="1171.29" x="7" y="97.75"/><text fill="#000000" font-family="sans-serif" font-size="14" font-weight="bold" lengthAdjust="spacing" textLength="62" x="561.645" y="113.2852">Bentochi</text></g><g id="elem_UC1"><ellipse cx="466.1858" cy="165.7512" fill="#F1F1F1" rx="74.1558" ry="17.2312" style="stroke:#181818;stroke-width:0.5;"/><text fill="#000000" font-family="sans-serif" font-size="14" lengthAdjust="spacing" textLength="104" x="414.1858" y="169.0422">Abrir conte&#250;do</text></g><g id="elem_UC2"><ellipse cx="764.029" cy="278.7538" fill="#F1F1F1" rx="69.069" ry="16.2138" style="stroke:#181818;stroke-width:0.5;"/><text fill="#000000" font-family="sans-serif" font-size="14" lengthAdjust="spacing" textLength="91" x="716.215" y="282.623">Abrir arquivo</text></g><g id="elem_UC3"><ellipse cx="764.0332" cy="147.7529" fill="#F1F1F1" rx="57.1732" ry="14.7529" style="stroke:#181818;stroke-width:0.5;"/><text fill="#000000" font-family="sans-serif" font-size="14" lengthAdjust="spacing" textLength="64" x="729.0332" y="151.7705">Abrir link</text></g><g id="elem_UC4"><ellipse cx="764.0325" cy="212.7465" fill="#F1F1F1" rx="63.4325" ry="15.0865" style="stroke:#181818;stroke-width:0.5;"/><text fill="#000000" font-family="sans-serif" font-size="14" lengthAdjust="spacing" textLength="75" x="723.5325" y="216.7641">Abrir texto</text></g><g id="elem_UC5"><ellipse cx="1058.6935" cy="259.7508" fill="#F1F1F1" rx="103.5935" ry="26.3608" style="stroke:#181818;stroke-width:0.5;"/><text fill="#000000" font-family="sans-serif" font-size="14" lengthAdjust="spacing" textLength="130" x="990.6935" y="255.5242">Verificar exist&#234;ncia</text><text fill="#000000" font-family="sans-serif" font-size="14" lengthAdjust="spacing" textLength="74" x="1018.6935" y="272.0125">do arquivo</text></g><g id="elem_UC6"><ellipse cx="466.1931" cy="259.748" fill="#F1F1F1" rx="109.7731" ry="26.318" style="stroke:#181818;stroke-width:0.5;"/><text fill="#000000" font-family="sans-serif" font-size="14" lengthAdjust="spacing" textLength="94" x="419.1931" y="254.7948">Exibir erro de</text><text fill="#000000" font-family="sans-serif" font-size="14" lengthAdjust="spacing" textLength="139" x="396.6931" y="271.2831">arquivo indispon&#237;vel</text></g><g id="elem_UC7"><ellipse cx="130.207" cy="263.7468" fill="#F1F1F1" rx="107.207" ry="26.3768" style="stroke:#181818;stroke-width:0.5;"/><text fill="#000000" font-family="sans-serif" font-size="14" lengthAdjust="spacing" textLength="135" x="59.707" y="259.5202">Atualizar refer&#234;ncia</text><text fill="#000000" font-family="sans-serif" font-size="14" lengthAdjust="spacing" textLength="74" x="90.207" y="276.0085">do arquivo</text></g><g id="elem_UC8"><ellipse cx="130.208" cy="175.7479" fill="#F1F1F1" rx="96.378" ry="26.3279" style="stroke:#181818;stroke-width:0.5;"/><text fill="#000000" font-family="sans-serif" font-size="14" lengthAdjust="spacing" textLength="120" x="68.2773" y="171.2771">Excluir refer&#234;ncia</text><text fill="#000000" font-family="sans-serif" font-size="14" lengthAdjust="spacing" textLength="53" x="101.7773" y="187.7654">inv&#225;lida</text></g><!--entity User--><g id="elem_User"><ellipse cx="130.21" cy="14" fill="#F1F1F1" rx="8" ry="8" style="stroke:#181818;stroke-width:0.5;"/><path d="M130.21,22 L130.21,49 M117.21,30 L143.21,30 M130.21,49 L117.21,64 M130.21,49 L143.21,64 " fill="none" style="stroke:#181818;stroke-width:0.5;"/><text fill="#000000" font-family="sans-serif" font-size="14" lengthAdjust="spacing" textLength="53" x="103.71" y="79.0352">Usu&#225;rio</text></g><!--entity FileSystem--><g id="elem_FileSystem"><ellipse cx="1294.79" cy="221.76" fill="#F1F1F1" rx="8" ry="8" style="stroke:#181818;stroke-width:0.5;"/><path d="M1294.79,229.76 L1294.79,256.76 M1281.79,237.76 L1307.79,237.76 M1294.79,256.76 L1281.79,271.76 M1294.79,256.76 L1307.79,271.76 " fill="none" style="stroke:#181818;stroke-width:0.5;"/><text fill="#000000" font-family="sans-serif" font-size="14" lengthAdjust="spacing" textLength="139" x="1225.29" y="286.7952">Sistema de Arquivos</text><text fill="#000000" font-family="sans-serif" font-size="14" lengthAdjust="spacing" textLength="47" x="1225.29" y="303.2834">macOS</text></g><!--entity ExternalApps--><g id="elem_ExternalApps"><ellipse cx="1058.69" cy="446" fill="#F1F1F1" rx="8" ry="8" style="stroke:#181818;stroke-width:0.5;"/><path d="M1058.69,454 L1058.69,481 M1045.69,462 L1071.69,462 M1058.69,481 L1045.69,496 M1058.69,481 L1071.69,496 " fill="none" style="stroke:#181818;stroke-width:0.5;"/><text fill="#000000" font-family="sans-serif" font-size="14" lengthAdjust="spacing" textLength="139" x="989.19" y="511.0352">Aplicativos Externos</text></g><!--entity Browser--><g id="elem_Browser"><ellipse cx="1058.69" cy="335" fill="#F1F1F1" rx="8" ry="8" style="stroke:#181818;stroke-width:0.5;"/><path d="M1058.69,343 L1058.69,370 M1045.69,351 L1071.69,351 M1058.69,370 L1045.69,385 M1058.69,370 L1071.69,385 " fill="none" style="stroke:#181818;stroke-width:0.5;"/><text fill="#000000" font-family="sans-serif" font-size="14" lengthAdjust="spacing" textLength="74" x="1021.69" y="400.0352">Navegador</text></g><!--link User to UC1--><g id="link_User_UC1"><path d="M157.14,53.22 C215.07,74.38 349.7343,123.5711 419.2043,148.9511 " fill="none" id="User-to-UC1" style="stroke:#181818;stroke-width:1.0;"/><polygon fill="#181818" points="424.84,151.01,417.7591,144.1645,420.1436,149.2942,415.0139,151.6787,424.84,151.01" style="stroke:#181818;stroke-width:1.0;"/></g><!--reverse link UC1 to UC2--><g id="link_UC1_UC2"><path d="M522.9844,187.0547 C580.4044,208.9947 670.18,243.28 726.29,264.71 " fill="none" id="UC1-backto-UC2" style="stroke:#181818;stroke-width:1.0;"/><polygon fill="none" points="506.17,180.63,520.8428,192.6595,525.1259,181.4499,506.17,180.63" style="stroke:#181818;stroke-width:1.0;"/></g><!--reverse link UC1 to UC3--><g id="link_UC1_UC3"><path d="M556.3968,160.3177 C608.5368,157.1477 660.29,154 708.15,151.09 " fill="none" id="UC1-backto-UC3" style="stroke:#181818;stroke-width:1.0;"/><polygon fill="none" points="538.43,161.41,556.7609,166.3066,556.0327,154.3287,538.43,161.41" style="stroke:#181818;stroke-width:1.0;"/></g><!--reverse link UC1 to UC4--><g id="link_UC1_UC4"><path d="M547.8345,177.5755 C586.7345,183.3555 619.88,188.42 664.96,195.75 C680.31,198.24 696.99,201.08 712.16,203.72 " fill="none" id="UC1-backto-UC4" style="stroke:#181818;stroke-width:1.0;"/><polygon fill="none" points="530.03,174.93,546.9527,183.5103,548.7164,171.6407,530.03,174.93" style="stroke:#181818;stroke-width:1.0;"/></g><!--link UC2 to UC5--><g id="link_UC2_UC5"><path d="M831.07,274.46 C868.5,272.03 910.0926,269.3289 951.9726,266.6089 " fill="none" id="UC2-to-UC5" style="stroke:#181818;stroke-width:1.0;stroke-dasharray:7.0,7.0;"/><polygon fill="#181818" points="957.96,266.22,948.7197,262.8117,952.9705,266.5441,949.2382,270.7949,957.96,266.22" style="stroke:#181818;stroke-width:1.0;"/><text fill="#000000" font-family="sans-serif" font-size="13" lengthAdjust="spacing" textLength="60" x="864.1" y="265.2484">&#171;include&#187;</text></g><!--link UC5 to FileSystem--><g id="link_UC5_FileSystem"><path d="M1162.71,259.75 C1183.81,259.75 1199.52,259.75 1219.06,259.75 " fill="none" id="UC5-to-FileSystem" style="stroke:#181818;stroke-width:1.0;"/><polygon fill="#181818" points="1225.06,259.75,1216.06,255.75,1220.06,259.75,1216.06,263.75,1225.06,259.75" style="stroke:#181818;stroke-width:1.0;"/></g><!--link UC2 to ExternalApps--><g id="link_UC2_ExternalApps"><path d="M775.63,294.84 C791.95,318.57 825.35,363.12 863.1,390.75 C901.18,418.61 944.1941,437.8018 983.3241,452.0918 " fill="none" id="UC2-to-ExternalApps" style="stroke:#181818;stroke-width:1.0;"/><polygon fill="#181818" points="988.96,454.15,981.8782,447.3054,984.2634,452.4348,979.134,454.82,988.96,454.15" style="stroke:#181818;stroke-width:1.0;"/></g><!--link UC3 to Browser--><g id="link_UC3_Browser"><path d="M803.03,158.96 C814.02,163.81 825.17,170.55 833.1,179.75 C863.39,214.89 832.32,245.02 863.1,279.75 C904.91,326.92 971.8257,347.7311 1015.5457,357.1911 " fill="none" id="UC3-to-Browser" style="stroke:#181818;stroke-width:1.0;"/><polygon fill="#181818" points="1021.41,358.46,1013.4595,352.6471,1016.5231,357.4026,1011.7676,360.4662,1021.41,358.46" style="stroke:#181818;stroke-width:1.0;"/></g><!--link UC6 to UC2--><g id="link_UC6_UC2"><path d="M572.74,266.52 C614.23,269.19 654.5823,271.7868 691.1423,274.1268 " fill="none" id="UC6-to-UC2" style="stroke:#181818;stroke-width:1.0;stroke-dasharray:7.0,7.0;"/><polygon fill="#181818" points="697.13,274.51,688.4039,269.9433,692.1402,274.1906,687.8929,277.927,697.13,274.51" style="stroke:#181818;stroke-width:1.0;"/><text fill="#000000" font-family="sans-serif" font-size="13" lengthAdjust="spacing" textLength="57" x="606.96" y="265.2484">&#171;extend&#187;</text></g><!--link UC7 to UC6--><g id="link_UC7_UC6"><path d="M237.34,262.47 C275.25,262.02 312.0204,261.5823 350.1704,261.1223 " fill="none" id="UC7-to-UC6" style="stroke:#181818;stroke-width:1.0;stroke-dasharray:7.0,7.0;"/><polygon fill="#181818" points="356.17,261.05,347.1224,257.1588,351.1704,261.1103,347.2189,265.1582,356.17,261.05" style="stroke:#181818;stroke-width:1.0;"/><text fill="#000000" font-family="sans-serif" font-size="13" lengthAdjust="spacing" textLength="57" x="268.41" y="258.0784">&#171;extend&#187;</text></g><!--link UC8 to UC6--><g id="link_UC8_UC6"><path d="M202.04,193.56 C256.99,207.38 327.2013,225.0363 383.4113,239.1763 " fill="none" id="UC8-to-UC6" style="stroke:#181818;stroke-width:1.0;stroke-dasharray:7.0,7.0;"/><polygon fill="#181818" points="389.23,240.64,381.4777,234.5652,384.3811,239.4202,379.5261,242.3235,389.23,240.64" style="stroke:#181818;stroke-width:1.0;"/><text fill="#000000" font-family="sans-serif" font-size="13" lengthAdjust="spacing" textLength="57" x="268.41" y="206.7884">&#171;extend&#187;</text></g><!--SRC=[TLBDJW8n4BxtAIRSCH5HY24aQF2e1w8dBgKTS69jrsaNyUzXk9hu0bxtnMpBOXRGIvEPxsywhS5vWE20QN4VG1EZ2kIi4585nz2wzMMrPd8ja1vkFV8Mc90F-2X18upugQIbyrFxADND95EloE3a9L6sWb5XICcGY31U1MJhVAPk2cb6HU6tv6kvn8NKZZFZWjrpYXPfEcaN1g5rWJOuTKyjU1C0fKSbVMoFPamCojc0rRUknxuyFgJ8pT0reND8C6GVQlJa40su2bjnjmdV8TCyNfG1Lt55rQTL9ATMkxt4qwPelA9PD4Lc5nSwjJKLo6hoXRFLrn9DBJpR6IQKqj1hJ6ES8_-RrjjDKwQaFGdPPRKsf6Mjw8iF8TA3Gxizp2iKyO31UxkTzzKeJff5D_4wS7IKHATm3eC1sPYdSJWKgPFi6hyZirDlvnj4qzpyVVbuxzgpaptZ-j7gRDchWRDzeFyty0C0]--></g></svg>