<?xml version="1.0" encoding="us-ascii" standalone="no"?><svg xmlns="http://www.w3.org/2000/svg" xmlns:xlink="http://www.w3.org/1999/xlink" contentStyleType="text/css" height="487px" preserveAspectRatio="none" style="width:634px;height:487px;background:#FFFFFF;" version="1.1" viewBox="0 0 634 487" width="634px" zoomAndPan="magnify"><defs/><g><!--cluster Bentochi--><g id="cluster_Bentochi"><rect fill="none" height="474" rx="2.5" ry="2.5" style="stroke:#181818;stroke-width:1.0;" width="522.43" x="106" y="7"/><text fill="#000000" font-family="sans-serif" font-size="14" font-weight="bold" lengthAdjust="spacing" textLength="62" x="336.215" y="22.5352">Bentochi</text></g><g id="elem_UC1"><ellipse cx="206.2383" cy="58.9997" fill="#F1F1F1" rx="71.7483" ry="16.7497" style="stroke:#181818;stroke-width:0.5;"/><text fill="#000000" font-family="sans-serif" font-size="14" lengthAdjust="spacing" textLength="98" x="156.3533" y="62.5268">Criar bentochi</text></g><g id="elem_UC2"><ellipse cx="206.2351" cy="136.998" fill="#F1F1F1" rx="70.1751" ry="26.318" style="stroke:#181818;stroke-width:0.5;"/><text fill="#000000" font-family="sans-serif" font-size="14" lengthAdjust="spacing" textLength="83" x="164.7351" y="132.0448">Editar nome</text><text fill="#000000" font-family="sans-serif" font-size="14" lengthAdjust="spacing" textLength="82" x="165.2351" y="148.5331">do bentochi</text></g><g id="elem_UC3"><ellipse cx="206.2441" cy="224.998" fill="#F1F1F1" rx="63.1041" ry="26.318" style="stroke:#181818;stroke-width:0.5;"/><text fill="#000000" font-family="sans-serif" font-size="14" lengthAdjust="spacing" textLength="73" x="169.7441" y="220.0448">Alterar cor</text><text fill="#000000" font-family="sans-serif" font-size="14" lengthAdjust="spacing" textLength="53" x="179.7441" y="236.5331">de capa</text></g><g id="elem_UC4"><ellipse cx="206.2365" cy="303.9973" fill="#F1F1F1" rx="77.0365" ry="17.8073" style="stroke:#181818;stroke-width:0.5;"/><text fill="#000000" font-family="sans-serif" font-size="14" lengthAdjust="spacing" textLength="111" x="150.7365" y="307.2883">Excluir bentochi</text></g><g id="elem_UC5"><ellipse cx="206.2352" cy="373.999" fill="#F1F1F1" rx="75.7952" ry="17.559" style="stroke:#181818;stroke-width:0.5;"/><text fill="#000000" font-family="sans-serif" font-size="14" lengthAdjust="spacing" textLength="108" x="152.2352" y="377.2901">Listar bentochis</text></g><g id="elem_UC6"><ellipse cx="206.2351" cy="445.997" fill="#F1F1F1" rx="84.2351" ry="19.247" style="stroke:#181818;stroke-width:0.5;"/><text fill="#000000" font-family="sans-serif" font-size="14" lengthAdjust="spacing" textLength="128" x="142.2351" y="449.288">Ordenar bentochis</text></g><g id="elem_UC7"><ellipse cx="512.452" cy="103.998" fill="#F1F1F1" rx="75.832" ry="26.318" style="stroke:#181818;stroke-width:0.5;"/><text fill="#000000" font-family="sans-serif" font-size="14" lengthAdjust="spacing" textLength="91" x="466.952" y="99.0448">Validar nome</text><text fill="#000000" font-family="sans-serif" font-size="14" lengthAdjust="spacing" textLength="78" x="473.452" y="115.5331">obrigat&#243;rio</text></g><g id="elem_UC8"><ellipse cx="512.4501" cy="304.0036" fill="#F1F1F1" rx="99.9801" ry="26.3436" style="stroke:#181818;stroke-width:0.5;"/><text fill="#000000" font-family="sans-serif" font-size="14" lengthAdjust="spacing" textLength="125" x="446.9501" y="299.777">Remover artefatos</text><text fill="#000000" font-family="sans-serif" font-size="14" lengthAdjust="spacing" textLength="73" x="472.9501" y="316.2653">vinculados</text></g><!--entity User--><g id="elem_User"><ellipse cx="32.5" cy="245.26" fill="#F1F1F1" rx="8" ry="8" style="stroke:#181818;stroke-width:0.5;"/><path d="M32.5,253.26 L32.5,280.26 M19.5,261.26 L45.5,261.26 M32.5,280.26 L19.5,295.26 M32.5,280.26 L45.5,295.26 " fill="none" style="stroke:#181818;stroke-width:0.5;"/><text fill="#000000" font-family="sans-serif" font-size="14" lengthAdjust="spacing" textLength="53" x="6" y="310.2952">Usu&#225;rio</text></g><!--link User to UC1--><g id="link_User_UC1"><path d="M37.14,236.56 C43.03,195.55 58.36,131.33 98,93 C110.71,80.71 122.0794,74.5719 138.9094,69.5619 " fill="none" id="User-to-UC1" style="stroke:#181818;stroke-width:1.0;"/><polygon fill="#181818" points="144.66,67.85,134.8928,66.584,139.8678,69.2765,137.1753,74.2515,144.66,67.85" style="stroke:#181818;stroke-width:1.0;"/></g><!--link User to UC2--><g id="link_User_UC2"><path d="M52.85,236.7 C63.94,217.87 79.37,196.05 98,181 C113.03,168.86 126.2693,161.7922 143.9393,155.0022 " fill="none" id="User-to-UC2" style="stroke:#181818;stroke-width:1.0;"/><polygon fill="#181818" points="149.54,152.85,139.7041,152.3444,144.8727,154.6435,142.5737,159.8121,149.54,152.85" style="stroke:#181818;stroke-width:1.0;"/></g><!--link User to UC3--><g id="link_User_UC3"><path d="M59.44,266.93 C68.75,264.07 79.33,260.85 89,258 C109.92,251.83 127.2555,246.8493 147.3155,241.1893 " fill="none" id="User-to-UC3" style="stroke:#181818;stroke-width:1.0;"/><polygon fill="#181818" points="153.09,239.56,143.342,238.1543,148.2779,240.9178,145.5144,245.8537,153.09,239.56" style="stroke:#181818;stroke-width:1.0;"/></g><!--link User to UC4--><g id="link_User_UC4"><path d="M59.21,279.34 C81.29,283.07 108.1238,287.601 137.0238,292.481 " fill="none" id="User-to-UC4" style="stroke:#181818;stroke-width:1.0;"/><polygon fill="#181818" points="142.94,293.48,134.7316,288.0373,138.0098,292.6475,133.3996,295.9257,142.94,293.48" style="stroke:#181818;stroke-width:1.0;"/></g><!--link User to UC5--><g id="link_User_UC5"><path d="M59.29,306.19 C70.22,317.81 83.73,330.28 98,339 C114.13,348.85 127.592,354.4964 145.262,359.8964 " fill="none" id="User-to-UC5" style="stroke:#181818;stroke-width:1.0;"/><polygon fill="#181818" points="151,361.65,143.562,355.1943,146.2183,360.1887,141.2239,362.845,151,361.65" style="stroke:#181818;stroke-width:1.0;"/></g><!--link User to UC6--><g id="link_User_UC6"><path d="M43.2,313.47 C52.59,343.33 69.65,383.77 98,409 C110.36,420 120.486,425.7803 136.136,431.2503 " fill="none" id="User-to-UC6" style="stroke:#181818;stroke-width:1.0;"/><polygon fill="#181818" points="141.8,433.23,134.6238,426.4845,137.08,431.5803,131.9842,434.0365,141.8,433.23" style="stroke:#181818;stroke-width:1.0;"/></g><!--link UC1 to UC7--><g id="link_UC1_UC7"><path d="M267.7,67.94 C317.95,75.38 383.5445,85.0827 436.1145,92.8527 " fill="none" id="UC1-to-UC7" style="stroke:#181818;stroke-width:1.0;stroke-dasharray:7.0,7.0;"/><polygon fill="#181818" points="442.05,93.73,433.7316,88.4571,437.1037,92.9989,432.5619,96.3711,442.05,93.73" style="stroke:#181818;stroke-width:1.0;"/><text fill="#000000" font-family="sans-serif" font-size="13" lengthAdjust="spacing" textLength="60" x="321.47" y="72.7184">&#171;include&#187;</text></g><!--link UC2 to UC7--><g id="link_UC2_UC7"><path d="M276.03,133.77 C308.39,131.87 347.48,129.04 382.47,125 C402.75,122.66 418.7995,120.3434 438.7495,117.0634 " fill="none" id="UC2-to-UC7" style="stroke:#181818;stroke-width:1.0;stroke-dasharray:7.0,7.0;"/><polygon fill="#181818" points="444.67,116.09,435.1403,113.6031,439.7362,116.9012,436.4382,121.4971,444.67,116.09" style="stroke:#181818;stroke-width:1.0;"/><text fill="#000000" font-family="sans-serif" font-size="13" lengthAdjust="spacing" textLength="60" x="321.47" y="121.5684">&#171;include&#187;</text></g><!--link UC4 to UC8--><g id="link_UC4_UC8"><path d="M283.61,304 C322.51,304 364.27,304 406.01,304 " fill="none" id="UC4-to-UC8" style="stroke:#181818;stroke-width:1.0;stroke-dasharray:7.0,7.0;"/><polygon fill="#181818" points="412.01,304,403.01,300,407.01,304,403.01,308,412.01,304" style="stroke:#181818;stroke-width:1.0;"/><text fill="#000000" font-family="sans-serif" font-size="13" lengthAdjust="spacing" textLength="60" x="321.47" y="300.5684">&#171;include&#187;</text></g><!--SRC=[TP3FIWCn48VlUOfXxorqk_s3b0LTl0c2K4-zfCcq3QGPIMQB83wCp-0ZzCNCohgCrHw__BxC93-FEmOcY6v_OB0kec57GIbjc28KwzIUFwAZ0dI2TSAeLAVeiFS8nHq69dDm1RmfW3QXqIaVDz7f2DiXxAus4sdSMyTP2NJ4JR1qwPRIlVMCCSk6OdOHZ7xHlJVzDVFL-DRzsLj9vy4b5azBlJEJpcEq6FwHvb9wrjxPuGUqpVrfFdyEJJKBQJ_XaKuOGKV6dMPAct1omRHUM_ePlrJlIdKDmsXKV_Sbe9GmbL19c4cOvt7D1CRZ3XPm0wjLtkbRYtMTa_9gKlN9yYBv0W00]--></g></svg>